<?xml version="1.0" encoding="UTF-8"?>
<svg id="Layer_1" data-name="Layer 1" xmlns="http://www.w3.org/2000/svg" viewBox="0 0 965.03 985.29">
  <defs>
    <style>
      .cls-1 {
        fill: #fff;
      }
    </style>
  </defs>
  <path d="m891.61,985.29H73.41c-1.63-.31-3.26-.65-4.89-.91-17.63-2.84-32.76-10.62-45.21-23.38C7.56,944.87.03,925.28.03,902.87-.01,629.44,0,356,.01,82.57c0-5.61.52-11.18,1.55-16.69C8.69,27.82,42.28,0,81.11,0,348.79,0,616.46,0,884.14,0c13.2,0,25.74,2.86,37.35,9.12,23.58,12.73,37.86,32.32,42.64,58.75.39,2.18.61,4.4.91,6.6v836.44c-.15.69-.33,1.37-.44,2.07-.5,3.23-.77,6.5-1.48,9.67-6.99,30.99-32.3,55.36-63.51,61.24-2.65.5-5.32.93-7.98,1.39ZM27.01,492.78c0,123.41,0,246.82,0,370.22,0,6.89.48,13.75,1.93,20.5,9.08,42.29,45.67,71.88,88.87,71.88,241.86,0,483.71,0,725.57-.05,4.93,0,9.93-.37,14.79-1.19,26.43-4.48,47.02-18.08,61.65-40.48,9.83-15.06,14.26-31.78,14.25-49.76-.03-166.28-.02-332.55-.02-498.83,0-81.18,0-162.36,0-243.54,0-6.42-.49-12.78-1.75-19.07-8.37-41.94-45.59-72.47-88.4-72.47-242.26,0-484.51,0-726.77.05-4.7,0-9.45.37-14.08,1.17-29.3,5.09-51.13,20.82-65.46,46.81-7.53,13.66-10.62,28.5-10.61,44.05.02,123.57.01,247.14.01,370.7Z"/>
  <path class="cls-1" d="m27.01,492.78c0-123.57,0-247.14-.01-370.7,0-15.56,3.08-30.39,10.61-44.05,14.33-25.99,36.17-41.72,65.46-46.81,4.62-.8,9.38-1.17,14.08-1.17,242.26-.06,484.51-.05,726.77-.05,42.8,0,80.03,30.53,88.4,72.47,1.26,6.29,1.75,12.66,1.75,19.07-.01,81.18,0,162.36,0,243.54,0,166.28-.01,332.55.02,498.83,0,17.99-4.42,34.7-14.25,49.76-14.63,22.4-35.22,36-61.65,40.48-4.86.82-9.86,1.19-14.79,1.19-241.86.06-483.71.05-725.57.05-43.2,0-79.79-29.59-88.87-71.88-1.45-6.75-1.93-13.61-1.93-20.5,0-123.41,0-246.82,0-370.22Zm873.08-.05c0-123.57,0-247.14-.04-370.71,0-3.98-.26-8.02-.99-11.93-5.03-26.91-28.25-46.07-55.62-46.07-241.94,0-483.88,0-725.82.02-2.55,0-5.13.1-7.65.48-19.26,2.96-33.54,13.08-42.72,30.24-4.54,8.5-6.24,17.71-6.24,27.3.02,134.45.01,268.89.01,403.34,0,112.53,0,225.06,0,337.6,0,5.14.4,10.22,1.62,15.22,6.2,25.4,28.77,43.13,54.91,43.13,242.02,0,484.04,0,726.06-.01,1.83,0,3.68-.11,5.5-.3,16.87-1.75,30.29-9.58,40.3-23.18,7.46-10.14,10.68-21.67,10.68-34.19-.01-123.65,0-247.3,0-370.95Z"/>
  <path d="m900.1,492.72c0,123.65,0,247.3,0,370.95,0,12.53-3.22,24.06-10.68,34.19-10.01,13.6-23.43,21.44-40.3,23.18-1.83.19-3.67.3-5.5.3-242.02.01-484.04.01-726.06.01-26.14,0-48.71-17.73-54.91-43.13-1.22-5-1.62-10.09-1.62-15.22,0-112.53,0-225.06,0-337.6,0-134.45,0-268.89-.01-403.34,0-9.6,1.69-18.81,6.24-27.3,9.18-17.17,23.46-27.28,42.72-30.24,2.52-.39,5.1-.48,7.65-.48,241.94-.02,483.88-.02,725.82-.02,27.37,0,50.59,19.16,55.62,46.07.73,3.9.99,7.95.99,11.93.05,123.57.04,247.14.04,370.71Zm-433.92-48.55c0-1.31,0-2.33,0-3.35-.02-40.39-.05-80.78-.07-121.17,0-3.53-.21-7.03-1.15-10.45-1.67-6.06-5.51-9.95-11.59-11.64-3.58-1-7.25-1.23-10.93-1.23-62.47-.02-124.93-.01-187.4,0-1.43,0-2.89.08-4.3.31-3.59.59-6.43,2.35-8.17,5.64-4.12,7.82.07,16.49,8.77,17.92,2.42.4,4.93.28,7.4.28,60.06.01,120.13,0,180.19.02.77,0,1.55.09,2.41.14v126.84c-6.02,1.36-11.91,2.7-17.95,4.07-.08-.83-.14-1.46-.21-2.08-.31-2.86-.36-5.77-.98-8.56-1.71-7.71-6.3-12.82-14.21-14.47-2.09-.44-4.29-.52-6.44-.53-29.43-.06-58.86-.11-88.29-.11-42.63,0-85.25.05-127.88.09-1.52,0-3.04.09-4.55.23-8.21.77-14.34,6.16-16.05,14.19-.36,1.71-.49,3.49-.52,5.24-.1,4.8-.11,9.59-.11,14.39.02,43.51.06,87.01.09,130.52,0,1.2.07,2.4.17,3.59.63,7.92,5.16,13.6,12.72,15.99,3.55,1.12,7.23,1.33,10.91,1.33,48.63.01,97.25.02,145.88,0,8.96,0,17.91-.12,26.87-.2,7.81-.07,14.95,1.83,21.43,6.43,6.08,4.32,12.82,7.55,19.84,10.05,11.14,3.97,22.34,7.76,33.52,11.63,1.88.65,3.77,1.29,5.57,1.91.52,4.13.32,29.84-.27,31.57h-3.06c-38.79,0-77.58,0-116.37,0-1.44,0-2.88,0-4.32.09-6.76.43-12.8,2.61-17.79,7.35-2.3,2.19-5.03,3.27-8.24,3.28-12.79.04-25.59.18-38.38.18-18.63,0-37.27-.08-55.9-.09-2.56,0-5.13.04-7.66.33-5.82.65-10.18,5.24-10.61,10.96-.45,5.97,2.98,10.98,8.71,12.43,1.83.46,3.79.59,5.7.62,6.4.07,12.8.03,19.19.03,25.75,0,51.51,0,77.26,0,.92,0,1.84.05,2.74.07v25.94h-3.2c-31.67,0-63.34,0-95.01.01-1.84,0-3.68.09-5.5.31-2.97.36-5.49,1.66-7.37,4.05-5.32,6.8-2.39,16.51,5.85,19.01,2.18.66,4.56.87,6.85.88,24.79.07,49.59.05,74.38.07,6.48,0,12.96.06,19.43.1,3.36.02,5.77,1.01,7.21,4.58,3.01,7.46,8.73,12.16,16.62,13.85,3.33.71,6.81.99,10.23,1.03,8.47.12,16.95-.04,25.43-.04,30.55.02,61.1.06,91.65.09.24,0,.48-.02.72,0,.61.06,1.21.13,1.86.21v35.78c-.35.12-.57.27-.79.27-97.49.02-194.98.04-292.48.04-.71,0-1.43-.09-2.14-.15-.07,0-.14-.07-.2-.12-.06-.05-.1-.11-.15-.18v-493.27h2.94c16.8,0,33.59,0,50.39-.01,1.6,0,3.2-.09,4.78-.28,6.71-.84,11.08-5.61,11.07-12-.01-6.28-4.31-10.78-11.15-11.59-1.66-.2-3.35-.28-5.02-.28-14.47.02-28.95.09-43.42.09-4.48,0-8.96-.33-13.43-.21-7.81.21-14.26,3.17-18.7,9.89-1.5,2.26-2.23,4.59-2.22,7.39.06,169.87.05,339.75.05,509.62,0,.56-.1,1.14.02,1.68.23,1.06.38,2.22.92,3.13,2.92,4.96,7.16,8.31,12.67,10.04,3.7,1.16,7.5,1.56,11.36,1.55,12.32-.03,24.63-.05,36.95-.06,23.59-.02,47.19-.04,70.78-.04,62.7,0,125.4,0,188.11-.02,2.55,0,5.12-.16,7.65-.48,9.43-1.17,14.83-6.43,16.26-15.83.36-2.36.54-4.77.56-7.16.08-11.68.07-23.35.1-35.03,0-.93,0-1.86,0-2.97h3.45c57.58,0,115.17-.03,172.75.02,13.39.01,25.9-2.95,37.66-9.54,15.55-8.71,31.31-17.05,46.94-25.62,2.3-1.26,4.52-2.74,6.55-4.4,8.21-6.72,8.26-19.34.15-26.05-2.26-1.87-4.79-3.48-7.36-4.9-14.92-8.2-29.97-16.18-44.82-24.49-12.15-6.8-25.06-10.18-38.97-10.17-57.34.04-114.69.02-172.03.02-.72,0-1.44.03-2.16-.01-.53-.03-1.05-.16-1.58-.24v-28.77c4.35-.37,8.56-.76,12.77-1.07,9.89-.74,19.73-1.78,29.46-3.84,34.61-7.33,64.76-22.92,89.66-48.28,10.93-11.13,20.28-23.46,28.2-36.88,3.86-6.53,3.95-13.25.01-19.79-10.88-18.09-24.04-34.29-40.2-47.95-30.73-25.96-66.73-38.27-106.42-40.98-4.54-.31-9.08-.51-14.05-.79Zm227.84-39.16c-.04-.95-.11-1.73-.11-2.51,0-8.08.03-16.15.03-24.23,0-3.12-.03-6.24-.07-9.36-.03-2.11.86-3.69,2.62-4.81.61-.39,1.23-.74,1.85-1.1,8.88-5.27,13.98-13.06,14.78-23.33.53-6.84.47-13.74.46-20.61,0-3.75-.07-7.56-.75-11.23-3.52-19.05-22.26-28.87-39.6-24.34-13.47,3.52-22.85,15.72-23,29.64-.09,7.76-.08,15.51,0,23.27.1,10.05,4.04,18.28,11.94,24.55,1.44,1.14,3.02,2.1,4.53,3.15,1.8,1.24,2.91,2.74,2.91,5.14-.01,11.43.11,22.87.16,34.3,0,.44-.18.89-.3,1.46-7.09-.02-14.07.06-21.18-.05.09-.98.12-1.61.22-2.23.98-6.23-.59-11.76-4.77-16.46-1.69-1.9-3.63-3.61-5.61-5.22-2.1-1.72-4.36-3.24-6.58-4.81-27.32-19.2-40.55-52.09-34.17-84.93,7.36-37.82,38.67-66.1,77.01-69.38,16.91-1.45,32.93,1.83,47.93,9.88,6.37,3.42,12.22,7.59,17.6,12.41,2.35,2.1,4.89,3.86,8.02,4.61,4.7,1.12,8.51-.42,11.56-3.99,3.02-3.53,3.79-7.49,1.91-11.83-1.2-2.77-3.16-4.97-5.38-6.97-28.52-25.58-61.77-34.07-98.9-26.06-53.27,11.48-94.68,64.42-84.01,125.99,5.14,29.65,20.46,53.23,44.83,70.91.71.52,1.45,1,2.14,1.54,4.38,3.4,4.8,6.14,1.6,10.61-.74,1.04-1.6,2-2.38,3.01-3.03,3.9-4.79,8.18-4.76,13.25.04,7.99-.34,15.99-.34,23.98,0,8.15.15,16.31.43,24.46.29,8.4,5.41,14.47,13.58,16.39,1.39.33,2.84.54,4.26.59,3.91.12,7.83.12,11.75.17.84.01,1.68.08,2.66.14,0,1.85-.04,3.44,0,5.03.11,3.59.05,7.21.46,10.77,1.12,9.71,7.86,16.19,17.55,16.94,11.26.87,22.53.83,33.79-.03,9.07-.69,15.7-6.61,17.26-15.59.46-2.66.47-5.4.56-8.11.09-2.94.02-5.88.02-9.02,1.1-.05,1.95-.12,2.8-.13,4.08-.07,8.16.04,12.23-.22,10.39-.66,17.29-7.64,17.41-18.03.18-15.11,0-30.22.04-45.34.02-6.29-2.18-11.71-6.02-16.56-.35-.44-.7-.88-1.01-1.34-.4-.6-.8-1.2-1.14-1.83-1.78-3.35-1.32-5.82,1.59-8.3.79-.67,1.66-1.25,2.5-1.85,16.21-11.59,28.74-26.22,37.03-44.43,10.92-23.99,12.91-48.73,6.3-74.19-.54-2.06-1.36-4.12-2.44-5.95-2.17-3.71-5.58-5.12-9.81-4.42-2.55.42-4.91,1.39-7.08,2.81-2.99,1.95-4.63,4.69-4.44,8.24.15,2.85.55,5.72,1.13,8.52,3.33,15.84,2.73,31.48-2.46,46.83-5.97,17.64-16.71,31.68-32.2,42.06-3.53,2.36-6.97,4.83-9.88,7.96-3.53,3.8-5.87,8.19-6.27,13.42-.17,2.19-.03,4.41-.03,6.75h-20.8Zm-400.82,228.67c-32.39,0-64.78,0-97.17.01-2.24,0-4.48.1-6.7.32-6.33.64-10.3,4.8-10.76,11.17-.43,6,2.9,10.73,8.9,12.22,2.3.57,4.74.71,7.13.72,19.59.08,39.19.1,58.78.09,46.71,0,93.41-.04,140.12-.07,1.12,0,2.26.04,3.35-.14,1.49-.25,3.01-.54,4.39-1.11,4.75-1.97,7.51-6.75,7.08-11.96-.47-5.67-3.39-9.3-8.89-10.46-2.71-.57-5.55-.76-8.33-.76-32.63-.05-65.26-.03-97.89-.03Zm.24-241.43c16.62,0,33.24,0,49.87,0,1.2,0,2.42.09,3.59-.12,1.87-.33,3.8-.65,5.54-1.38,4.65-1.96,6.77-5.95,6.51-11.7-.22-4.8-2.95-8.56-7.67-9.89-2.35-.66-4.87-.95-7.32-.96-14.22-.09-28.45-.04-42.67-.04-19.26,0-38.52-.03-57.78.04-2.53,0-5.13.29-7.56.96-5.24,1.46-7.99,5.3-8.05,10.57-.07,5.8,2.63,9.73,7.88,11.53,2.46.84,4.99,1,7.56,1,16.7,0,33.4,0,50.11,0Zm261.06-111.12c2.33-.05,4.48-.61,6.31-2.03,3.99-3.09,5.63-7.31,5.25-12.22-.3-3.9-2.45-6.76-6.13-8.16-5.81-2.22-11.72-4.19-17.52-6.45-2.85-1.11-5.6-1.02-8.43-.23-5.33,1.48-8.57,5.53-8.95,11.15-.34,5.11,2.34,9.21,7.52,11.31,6,2.43,12.12,4.52,18.43,6,1.16.27,2.35.42,3.53.62Zm262.56,31.12c-1.87.17-3.33.13-4.71.45-5.68,1.3-9.18,6-9.16,12.13.02,5.98,3.12,9.86,9.03,11.3.62.15,1.24.3,1.87.38,5.22.67,10.45,1.37,15.68,1.96,1.41.16,2.88.11,4.29-.08,5.92-.8,10.16-5.29,10.51-11.01.38-6.18-2.94-10.78-8.97-12.45-.54-.15-1.08-.3-1.63-.38-5.77-.79-11.54-1.57-16.91-2.3Zm-19.57-43.18c.27,1.08.56,3.08,1.28,4.9,2.21,5.57,6.88,7.91,12.74,6.61,6.96-1.55,13.72-3.74,20.26-6.57,5.03-2.17,7.23-6.04,6.62-11.49-.82-7.38-8.19-12.95-14.94-10.89-6.64,2.02-13.15,4.49-19.64,6.95-4.3,1.63-6.18,5.07-6.31,10.49Zm-250.32,43.29c-2.14.21-4.3.34-6.43.63-4.18.58-8.38,1.11-12.52,1.93-3.42.67-6.22,2.48-7.89,5.68-3.48,6.68-.22,14.87,6.92,17.17,1.71.55,3.64.95,5.4.76,6.26-.66,12.52-1.43,18.72-2.49,4.76-.81,7.88-3.72,8.73-8.64.92-5.29-.33-9.83-4.95-13.03-2.39-1.66-5.1-2.18-7.98-2.02Zm188.64-113.04c5.28.06,8.65-1.8,10.87-5.65,3.44-5.97,6.21-12.26,8.51-18.75.37-1.04.54-2.18.59-3.28.38-7.52-6.31-12.79-13.31-12.69-.53,0-1.07.25-1.59.44-3.81,1.47-6.81,3.81-8.36,7.74-.26.66-.68,1.27-1.01,1.91-2.58,5.06-4.95,10.22-6.55,15.69-1.36,4.64.07,8.89,3.84,11.73,2.43,1.82,5.17,2.82,6.99,2.87Zm-114.78-40.36c-8.96-.07-14.96,6.94-12.93,14.64,1.78,6.73,4.47,13.16,8.35,19.02,1.33,2.01,3.04,3.57,5.28,4.34,2.17.74,4.43,1.42,6.7,1.66,2.82.3,5.39-.67,7.3-2.89,2.67-3.09,3.23-6.87,3.36-10.75.02-.52-.29-1.07-.51-1.58-1.85-4.16-3.69-8.33-5.58-12.47-.9-1.96-1.82-3.92-2.88-5.79-2.16-3.83-5.43-5.98-9.1-6.17Zm48.87,7.38s0,0,.01,0c0,3.28-.1,6.56.02,9.83.19,5.02,3.33,9.12,7.93,10.66,7.71,2.57,15.51-2.76,15.97-11.08.21-3.83.06-7.67.06-11.51,0-2.4.11-4.81-.07-7.19-.51-6.79-5.56-11.34-12.26-11.18-7.11.17-11.41,4.41-11.65,11.6-.1,2.95-.02,5.91-.02,8.87Zm100.67,53.74c-.25,4.4,1.4,7.97,5.42,10.3.28.16.56.32.79.54,1.71,1.55,3.61,1.96,5.92,1.48,1.92-.4,3.67-.83,5.17-2.22,1.87-1.74,3.98-3.22,5.85-4.96,3.67-3.44,7.25-6.96,10.83-10.49,1.26-1.24,1.69-2.84,1.66-4.6-.05-2.68-.71-5.21-1.8-7.64-2.88-6.44-9.51-8.41-15.28-4.37-5.64,3.95-10.83,8.44-15.48,13.55-2.18,2.39-3.22,5.09-3.07,8.42Zm-219.61,180.92c.42-.21.71-.32.97-.49,4.75-3.12,9.53-6.17,14.21-9.38,3.16-2.17,6.16-4.58,9.23-6.88,1.21-.91,1.86-2.11,2.1-3.62.49-3.02-.03-5.89-1.21-8.66-.3-.71-.78-1.45-1.37-1.93-4-3.27-8.47-4.84-13.58-3.07-5.72,1.98-10.82,5.08-15.67,8.68-4.26,3.17-5.82,7.42-5.82,12.5,0,2.38.79,4.44,2.59,5.96,2.8,2.37,5.7,4.61,8.55,6.9Zm246.65-38.07c-2.64,2-5.14,3.73-7.44,5.7-1.3,1.12-2.58,2.48-3.29,4-1.6,3.41-.51,11.03,3.24,14.18,5.32,4.46,11.13,8.05,17.69,10.31,4.07,1.4,7.87.28,11.48-1.69,3.16-1.73,4.02-4.79,4.52-8.02.1-.63.09-1.27.12-1.91.12-2.47-.73-4.4-2.72-6.04-7.41-6.12-15.66-11.01-23.61-16.54Zm-204.7-142.98c-.03-2.7-.54-5.21-2.34-7.38-4.79-5.77-10.41-10.59-16.69-14.64-2.38-1.53-5.02-1.96-7.81-1.28-6.43,1.56-10.58,7.9-9.3,14.39.19.97.64,2.06,1.33,2.73,5.61,5.46,11.2,10.92,17.39,15.75,3.11,2.42,6.15,2.73,9.6,1.34,1.11-.45,2.2-.96,3.24-1.53,2.57-1.41,3.94-3.66,4.33-6.52.13-.95.17-1.91.25-2.86Z"/>
  <path class="cls-1" d="m466.17,444.17c4.96.28,9.51.48,14.05.79,39.69,2.71,75.69,15.02,106.42,40.98,16.17,13.66,29.32,29.86,40.2,47.95,3.94,6.55,3.85,13.26-.01,19.79-7.92,13.41-17.27,25.75-28.2,36.88-24.9,25.35-55.05,40.95-89.66,48.28-9.72,2.06-19.57,3.1-29.46,3.84-4.21.32-8.41.71-12.77,1.07v28.77c.53.09,1.05.21,1.58.24.72.04,1.44.01,2.16.01,57.34,0,114.69.03,172.03-.02,13.91-.01,26.82,3.37,38.97,10.17,14.86,8.32,29.9,16.29,44.82,24.49,2.58,1.42,5.1,3.03,7.36,4.9,8.11,6.71,8.06,19.34-.15,26.05-2.03,1.66-4.25,3.14-6.55,4.4-15.63,8.57-31.39,16.91-46.94,25.62-11.76,6.58-24.27,9.55-37.66,9.54-57.58-.05-115.17-.02-172.75-.02h-3.45c0,1.11,0,2.04,0,2.97-.02,11.68-.02,23.35-.1,35.03-.02,2.39-.2,4.8-.56,7.16-1.43,9.4-6.83,14.66-16.26,15.83-2.53.31-5.1.48-7.65.48-62.7.03-125.4.02-188.11.02-23.59,0-47.19.02-70.78.04-12.32.01-24.63.03-36.95.06-3.86,0-7.66-.39-11.36-1.55-5.5-1.72-9.75-5.08-12.67-10.04-.54-.91-.68-2.07-.92-3.13-.12-.53-.02-1.12-.02-1.68,0-169.87,0-339.75-.05-509.62,0-2.8.73-5.12,2.22-7.39,4.44-6.72,10.89-9.68,18.7-9.89,4.47-.12,8.95.21,13.43.21,14.47,0,28.95-.07,43.42-.09,1.68,0,3.36.08,5.02.28,6.84.81,11.13,5.31,11.15,11.59.01,6.39-4.35,11.16-11.07,12-1.58.2-3.19.28-4.78.28-16.8.02-33.59.01-50.39.01h-2.94v493.27c.06.07.1.13.15.18.06.05.13.12.2.12.71.06,1.43.15,2.14.15,97.49,0,194.98-.02,292.48-.04.22,0,.44-.15.79-.27v-35.78c-.64-.07-1.25-.15-1.86-.21-.24-.02-.48,0-.72,0-30.55-.03-61.1-.07-91.65-.09-8.48,0-16.95.15-25.43.04-3.42-.05-6.89-.32-10.23-1.03-7.89-1.69-13.61-6.39-16.62-13.85-1.44-3.58-3.85-4.57-7.21-4.58-6.48-.04-12.96-.09-19.43-.1-24.79-.02-49.59,0-74.38-.07-2.29,0-4.68-.22-6.85-.88-8.24-2.5-11.17-12.2-5.85-19.01,1.87-2.4,4.39-3.69,7.37-4.05,1.82-.22,3.67-.31,5.5-.31,31.67-.02,63.34-.01,95.01-.01h3.2v-25.94c-.9-.03-1.82-.07-2.74-.07-25.75,0-51.51,0-77.26,0-6.4,0-12.8.04-19.19-.03-1.9-.02-3.86-.15-5.7-.62-5.73-1.45-9.15-6.46-8.71-12.43.43-5.72,4.79-10.31,10.61-10.96,2.54-.28,5.11-.33,7.66-.33,18.63.01,37.27.1,55.9.09,12.79,0,25.59-.14,38.38-.18,3.21,0,5.94-1.09,8.24-3.28,4.99-4.74,11.03-6.92,17.79-7.35,1.43-.09,2.88-.09,4.32-.09,38.79,0,77.58,0,116.37,0h3.06c.59-1.73.8-27.44.27-31.57-1.8-.62-3.69-1.26-5.57-1.91-11.18-3.87-22.38-7.65-33.52-11.63-7.02-2.51-13.76-5.73-19.84-10.05-6.48-4.6-13.62-6.5-21.43-6.43-8.96.08-17.91.2-26.87.2-48.63.02-97.25.01-145.88,0-3.68,0-7.35-.21-10.91-1.33-7.56-2.39-12.09-8.07-12.72-15.99-.09-1.19-.17-2.39-.17-3.59-.04-43.51-.07-87.01-.09-130.52,0-4.8.02-9.6.11-14.39.03-1.75.16-3.53.52-5.24,1.71-8.03,7.84-13.42,16.05-14.19,1.51-.14,3.03-.23,4.55-.23,42.63-.04,85.25-.09,127.88-.09,29.43,0,58.86.04,88.29.11,2.15,0,4.35.09,6.44.53,7.91,1.65,12.49,6.76,14.21,14.47.62,2.79.67,5.7.98,8.56.07.62.12,1.25.21,2.08,6.04-1.37,11.94-2.7,17.95-4.07v-126.84c-.86-.05-1.64-.14-2.41-.14-60.06,0-120.13,0-180.19-.02-2.47,0-4.98.12-7.4-.28-8.7-1.43-12.89-10.1-8.77-17.92,1.73-3.29,4.58-5.05,8.17-5.64,1.41-.23,2.86-.31,4.3-.31,62.47-.01,124.93-.02,187.4,0,3.68,0,7.35.23,10.93,1.23,6.08,1.69,9.92,5.58,11.59,11.64.94,3.42,1.15,6.92,1.15,10.45.02,40.39.04,80.78.07,121.17,0,1.02,0,2.04,0,3.35Zm-277.06,6.55v135.41h152.65c-.59-.9-.99-1.55-1.43-2.17-4.89-6.82-9.8-13.63-14.69-20.46-1.91-2.67-3.83-5.32-5.65-8.05-3.04-4.57-4.35-9.56-3.29-15.05.6-3.1,1.8-5.96,3.42-8.65,9.52-15.8,21.07-29.92,34.89-42.15,10.59-9.37,22.17-17.3,34.63-23.98,2.18-1.17,4.33-2.41,6.45-3.69,1.44-.87,2.42-2.15,2.48-3.88.09-2.46-.17-4.9-.89-7.32h-208.57Zm286.1,167.36c6.75-.08,14.8-.59,22.8-1.76,21.89-3.19,41.97-10.99,60.17-23.57,17.39-12.02,31.51-27.25,43.55-44.51.41-.59.75-1.23,1.06-1.87.83-1.68.85-3.4.01-5.08-.5-1-1.04-1.99-1.71-2.88-3.5-4.67-6.88-9.44-10.61-13.92-17.41-20.89-38.67-36.41-64.34-45.69-12.54-4.53-25.47-7.36-38.71-8.78-6.12-.65-12.25-1.31-18.42-.92-7.9.49-15.77,1.31-23.56,2.74-19.15,3.51-37.11,10.13-53.63,20.52-19.2,12.06-34.64,27.95-47.43,46.54-.5.72-.92,1.5-1.28,2.3-.77,1.69-.79,3.43,0,5.11.51,1.08,1.09,2.15,1.8,3.1,3.55,4.73,6.97,9.57,10.76,14.11,15.07,18.09,33.07,32.4,54.72,41.91,20.24,8.89,41.52,12.51,64.83,12.66Zm155.87,119.21h-2.88c-10.8,0-21.59,0-32.39,0-2.56,0-5.12.05-7.67-.12-7.08-.48-11.06-5.87-9.56-12.8.53-2.46,1.6-4.66,2.89-6.8,1.44-2.38,3.48-3.7,6.22-3.94,2.07-.18,4.14-.38,6.22-.38,11.52-.05,23.03-.04,34.55-.05.85,0,1.71,0,2.83,0,0-5.19.1-10.09-.06-15-.62-.1-.93-.19-1.24-.19-81.41,0-162.83,0-244.24,0-.23,0-.47.07-.7.13-.07.02-.12.09-.18.15-.06.05-.11.11-.16.16v14.75h2.77c49.18,0,98.37,0,147.55,0,1.92,0,3.85-.12,5.75.03,4.27.34,7.94,1.9,10.18,5.8,4.59,8.01-.44,17.53-9.62,18.17-2.31.16-4.63.09-6.95.09-48.94,0-97.89,0-146.83,0h-2.54c-.57,2.24-.55,13.22-.04,15.13h246.11v-15.13Zm-271.95,15.2v-54.49h-41.27v54.49h41.27Zm297.13-.37c.55-.1.88-.1,1.14-.22,4.52-2.19,9.06-4.36,13.54-6.63,2.79-1.42,4.24-3.8,4.3-6.95.12-6.3.25-12.61.28-18.92.02-3.19-.19-6.38-.24-9.57-.03-1.62-.76-2.62-2.22-3.35-5.15-2.55-10.25-5.2-15.37-7.8-.38-.19-.84-.25-1.43-.42v53.85Zm43.64-22.44c2.78-1.6,5.28-2.8,7.71-4.44-3.55-2.38-6.11-3.59-7.71-3.7v8.14Z"/>
  <path class="cls-1" d="m694.01,405.01h20.8c0-2.33-.14-4.55.03-6.75.41-5.23,2.74-9.62,6.27-13.42,2.91-3.13,6.35-5.59,9.88-7.96,15.49-10.38,26.23-24.43,32.2-42.06,5.2-15.36,5.79-30.99,2.46-46.83-.59-2.8-.98-5.67-1.13-8.52-.19-3.55,1.45-6.3,4.44-8.24,2.18-1.42,4.53-2.38,7.08-2.81,4.22-.7,7.64.71,9.81,4.42,1.07,1.84,1.9,3.89,2.44,5.95,6.61,25.46,4.62,50.2-6.3,74.19-8.29,18.21-20.83,32.84-37.03,44.43-.85.6-1.72,1.18-2.5,1.85-2.91,2.48-3.37,4.95-1.59,8.3.34.63.74,1.23,1.14,1.83.31.46.66.9,1.01,1.34,3.84,4.85,6.04,10.27,6.02,16.56-.05,15.11.14,30.23-.04,45.34-.13,10.38-7.02,17.37-17.41,18.03-4.06.26-8.15.15-12.23.22-.85.01-1.7.08-2.8.13,0,3.15.07,6.09-.02,9.02-.08,2.71-.09,5.46-.56,8.11-1.56,8.98-8.19,14.89-17.26,15.59-11.26.86-22.53.9-33.79.03-9.7-.75-16.43-7.23-17.55-16.94-.41-3.56-.34-7.18-.46-10.77-.05-1.59,0-3.18,0-5.03-.98-.05-1.82-.12-2.66-.14-3.92-.06-7.84-.05-11.75-.17-1.43-.04-2.87-.26-4.26-.59-8.17-1.92-13.29-7.99-13.58-16.39-.28-8.15-.43-16.31-.43-24.46,0-7.99.38-15.99.34-23.98-.02-5.07,1.73-9.35,4.76-13.25.79-1.01,1.64-1.97,2.38-3.01,3.2-4.47,2.78-7.21-1.6-10.61-.69-.54-1.43-1.02-2.14-1.54-24.37-17.68-39.69-41.26-44.83-70.91-10.67-61.57,30.74-114.5,84.01-125.99,37.13-8.01,70.38.49,98.9,26.06,2.22,1.99,4.18,4.2,5.38,6.97,1.88,4.34,1.11,8.3-1.91,11.83-3.05,3.57-6.86,5.11-11.56,3.99-3.13-.75-5.68-2.51-8.02-4.61-5.38-4.82-11.23-8.99-17.6-12.41-15-8.05-31.01-11.33-47.93-9.88-38.35,3.28-69.66,31.56-77.01,69.38-6.39,32.84,6.85,65.73,34.17,84.93,2.22,1.56,4.48,3.09,6.58,4.81,1.98,1.61,3.92,3.32,5.61,5.22,4.18,4.69,5.75,10.22,4.77,16.46-.1.62-.12,1.25-.22,2.23,7.11.11,14.09.03,21.18.05.12-.57.3-1.01.3-1.46-.06-11.43-.18-22.87-.16-34.3,0-2.4-1.11-3.9-2.91-5.14-1.51-1.05-3.09-2.01-4.53-3.15-7.9-6.26-11.85-14.5-11.94-24.55-.07-7.76-.08-15.51,0-23.27.15-13.93,9.53-26.12,23-29.64,17.34-4.54,36.09,5.29,39.6,24.34.68,3.67.74,7.48.75,11.23,0,6.87.07,13.77-.46,20.61-.8,10.26-5.9,18.06-14.78,23.33-.62.37-1.25.72-1.85,1.1-1.76,1.12-2.65,2.7-2.62,4.81.04,3.12.07,6.24.07,9.36,0,8.08-.03,16.15-.03,24.23,0,.78.06,1.56.11,2.51Zm30.36,25.68h-84.78c-.55,3.73-.36,33.61.19,35.18h84.59v-35.18Zm-35.32-105.47s0,0-.01,0c0-2.07.06-4.15-.01-6.22-.08-2.39-.1-4.8-.46-7.14-.39-2.5-2-4.2-4.54-4.64-1.45-.25-3.03-.3-4.47-.02-2.89.55-4.61,2.55-4.84,5.47-.65,8.28-.7,16.58,0,24.86.15,1.73.87,3.23,2.32,4.28,4.63,3.37,11.01.75,11.85-4.87.13-.86.17-1.75.17-2.62.02-3.03,0-6.06,0-9.09Zm-17.12,173.62h20.15v-7.32h-20.15v7.32Z"/>
  <path class="cls-1" d="m293.19,633.68c32.63,0,65.26-.02,97.89.03,2.78,0,5.62.19,8.33.76,5.5,1.16,8.42,4.79,8.89,10.46.43,5.21-2.33,9.99-7.08,11.96-1.38.57-2.9.86-4.39,1.11-1.09.19-2.23.14-3.35.14-46.71.03-93.41.06-140.12.07-19.59,0-39.19-.02-58.78-.09-2.38,0-4.83-.16-7.13-.72-6.01-1.48-9.34-6.22-8.9-12.22.46-6.37,4.43-10.53,10.76-11.17,2.22-.22,4.47-.32,6.7-.32,32.39-.02,64.78-.01,97.17-.01Z"/>
  <path class="cls-1" d="m293.44,392.25c-16.7,0-33.4,0-50.11,0-2.57,0-5.11-.15-7.56-1-5.25-1.8-7.94-5.73-7.88-11.53.06-5.27,2.82-9.11,8.05-10.57,2.42-.68,5.03-.95,7.56-.96,19.26-.08,38.52-.04,57.78-.04,14.22,0,28.45-.04,42.67.04,2.45.01,4.97.3,7.32.96,4.72,1.34,7.45,5.09,7.67,9.89.26,5.75-1.85,9.73-6.51,11.7-1.73.73-3.67,1.05-5.54,1.38-1.17.21-2.39.12-3.59.12-16.62,0-33.24,0-49.87,0Z"/>
  <path class="cls-1" d="m554.5,281.14c-1.18-.2-2.37-.35-3.53-.62-6.31-1.48-12.43-3.57-18.43-6-5.18-2.1-7.86-6.2-7.52-11.31.38-5.62,3.61-9.67,8.95-11.15,2.83-.79,5.58-.88,8.43.23,5.8,2.26,11.71,4.23,17.52,6.45,3.69,1.41,5.83,4.26,6.13,8.16.38,4.91-1.26,9.12-5.25,12.22-1.83,1.42-3.98,1.98-6.31,2.03Z"/>
  <path class="cls-1" d="m817.05,312.25c5.37.73,11.15,1.51,16.91,2.3.55.08,1.09.23,1.63.38,6.04,1.66,9.35,6.27,8.97,12.45-.35,5.71-4.59,10.21-10.51,11.01-1.41.19-2.88.24-4.29.08-5.23-.59-10.46-1.29-15.68-1.96-.63-.08-1.26-.23-1.87-.38-5.91-1.44-9.01-5.32-9.03-11.3-.02-6.13,3.48-10.83,9.16-12.13,1.38-.32,2.85-.28,4.71-.45Z"/>
  <path class="cls-1" d="m797.48,269.07c.14-5.42,2.01-8.86,6.31-10.49,6.5-2.46,13-4.93,19.64-6.95,6.76-2.06,14.12,3.52,14.94,10.89.61,5.45-1.59,9.32-6.62,11.49-6.54,2.83-13.3,5.02-20.26,6.57-5.86,1.3-10.53-1.04-12.74-6.61-.72-1.83-1.01-3.83-1.28-4.9Z"/>
  <path class="cls-1" d="m547.16,312.36c2.88-.16,5.58.36,7.98,2.02,4.62,3.2,5.87,7.74,4.95,13.03-.85,4.92-3.97,7.82-8.73,8.64-6.2,1.06-12.46,1.83-18.72,2.49-1.76.19-3.69-.21-5.4-.76-7.14-2.31-10.39-10.49-6.92-17.17,1.67-3.2,4.47-5.01,7.89-5.68,4.14-.81,8.34-1.35,12.52-1.93,2.13-.3,4.29-.43,6.43-.63Z"/>
  <path class="cls-1" d="m735.81,199.32c-1.82-.05-4.57-1.05-6.99-2.87-3.77-2.84-5.2-7.09-3.84-11.73,1.6-5.47,3.96-10.62,6.55-15.69.33-.64.75-1.24,1.01-1.91,1.55-3.92,4.54-6.27,8.36-7.74.51-.2,1.06-.44,1.59-.44,7-.1,13.69,5.16,13.31,12.69-.06,1.1-.23,2.25-.59,3.28-2.3,6.49-5.08,12.78-8.51,18.75-2.22,3.85-5.59,5.71-10.87,5.65Z"/>
  <path class="cls-1" d="m621.03,158.97c3.68.19,6.94,2.34,9.1,6.17,1.06,1.88,1.99,3.83,2.88,5.79,1.89,4.14,3.73,8.31,5.58,12.47.22.51.53,1.06.51,1.58-.14,3.88-.69,7.67-3.36,10.75-1.92,2.22-4.49,3.19-7.3,2.89-2.27-.24-4.53-.91-6.7-1.66-2.24-.77-3.95-2.33-5.28-4.34-3.89-5.86-6.57-12.29-8.35-19.02-2.03-7.7,3.97-14.71,12.93-14.64Z"/>
  <path class="cls-1" d="m669.9,166.34c0-2.96-.08-5.92.02-8.87.24-7.19,4.55-11.43,11.65-11.6,6.7-.16,11.75,4.39,12.26,11.18.18,2.39.07,4.79.07,7.19,0,3.84.15,7.69-.06,11.51-.47,8.31-8.27,13.65-15.97,11.08-4.6-1.54-7.73-5.64-7.93-10.66-.13-3.27-.02-6.55-.02-9.83,0,0,0,0-.01,0Z"/>
  <path class="cls-1" d="m770.57,220.08c-.15-3.33.9-6.03,3.07-8.42,4.65-5.12,9.84-9.61,15.48-13.55,5.77-4.04,12.39-2.07,15.28,4.37,1.09,2.43,1.75,4.96,1.8,7.64.03,1.76-.4,3.36-1.66,4.6-3.58,3.53-7.17,7.06-10.83,10.49-1.86,1.75-3.97,3.23-5.85,4.96-1.5,1.39-3.25,1.82-5.17,2.22-2.31.48-4.2.07-5.92-1.48-.23-.21-.52-.38-.79-.54-4.02-2.33-5.67-5.9-5.42-10.3Z"/>
  <path class="cls-1" d="m550.95,401c-2.85-2.29-5.75-4.53-8.55-6.9-1.8-1.52-2.59-3.59-2.59-5.96,0-5.08,1.55-9.33,5.82-12.5,4.85-3.6,9.95-6.7,15.67-8.68,5.11-1.77,9.58-.19,13.58,3.07.59.48,1.07,1.22,1.37,1.93,1.18,2.77,1.7,5.63,1.21,8.66-.24,1.51-.89,2.71-2.1,3.62-3.07,2.3-6.07,4.71-9.23,6.88-4.68,3.22-9.47,6.27-14.21,9.38-.26.17-.56.28-.97.49Z"/>
  <path class="cls-1" d="m797.61,362.94c7.95,5.53,16.2,10.42,23.61,16.54,1.98,1.64,2.84,3.56,2.72,6.04-.03.64-.02,1.28-.12,1.91-.5,3.23-1.35,6.29-4.52,8.02-3.62,1.97-7.41,3.1-11.48,1.69-6.57-2.26-12.38-5.85-17.69-10.31-3.75-3.15-4.83-10.77-3.24-14.18.71-1.52,1.99-2.89,3.29-4,2.29-1.97,4.8-3.7,7.44-5.7Z"/>
  <path class="cls-1" d="m592.91,219.95c-.08.95-.12,1.91-.25,2.86-.39,2.87-1.76,5.11-4.33,6.52-1.05.57-2.14,1.08-3.24,1.53-3.45,1.39-6.49,1.08-9.6-1.34-6.2-4.83-11.79-10.3-17.39-15.75-.69-.67-1.14-1.76-1.33-2.73-1.28-6.49,2.87-12.82,9.3-14.39,2.8-.68,5.44-.25,7.81,1.28,6.28,4.05,11.9,8.87,16.69,14.64,1.8,2.17,2.31,4.67,2.34,7.38Z"/>
  <path d="m189.11,450.73h208.57c.73,2.42.98,4.86.89,7.32-.06,1.74-1.04,3.02-2.48,3.88-2.12,1.28-4.27,2.52-6.45,3.69-12.45,6.68-24.04,14.61-34.63,23.98-13.83,12.23-25.37,26.36-34.89,42.15-1.62,2.69-2.83,5.55-3.42,8.65-1.06,5.49.25,10.48,3.29,15.05,1.82,2.73,3.74,5.38,5.65,8.05,4.89,6.83,9.8,13.64,14.69,20.46.44.62.84,1.27,1.43,2.17h-152.65v-135.41Z"/>
  <path d="m475.21,618.08c-23.31-.15-44.59-3.77-64.83-12.66-21.66-9.51-39.66-23.82-54.72-41.91-3.78-4.54-7.21-9.38-10.76-14.11-.71-.95-1.29-2.02-1.8-3.1-.79-1.68-.76-3.42,0-5.11.36-.8.79-1.58,1.28-2.3,12.79-18.59,28.24-34.48,47.43-46.54,16.52-10.38,34.48-17,53.63-20.52,7.79-1.43,15.66-2.25,23.56-2.74,6.17-.39,12.31.27,18.42.92,13.24,1.41,26.17,4.24,38.71,8.78,25.67,9.28,46.93,24.8,64.34,45.69,3.73,4.48,7.11,9.25,10.61,13.92.67.89,1.21,1.88,1.71,2.88.84,1.68.81,3.4-.01,5.08-.32.64-.65,1.29-1.06,1.87-12.04,17.26-26.17,32.49-43.55,44.51-18.2,12.58-38.27,20.38-60.17,23.57-8.01,1.17-16.05,1.68-22.8,1.76Zm62.06-74.36c.09-34.24-27.79-63.22-62.54-64.14-36.02-.95-65.38,27.46-65.96,63.48-.57,35.47,28.16,64.4,63.36,64.79,35.01.39,64.8-27.4,65.15-64.13Z"/>
  <path d="m631.08,737.29v15.13h-246.11c-.52-1.91-.53-12.89.04-15.13h2.54c48.94,0,97.89,0,146.83,0,2.32,0,4.64.07,6.95-.09,9.18-.64,14.21-10.17,9.62-18.17-2.24-3.9-5.91-5.47-10.18-5.8-1.91-.15-3.84-.03-5.75-.03-49.18,0-98.37,0-147.55,0h-2.77v-14.75s.1-.1.16-.16c.06-.05.11-.13.18-.15.23-.06.47-.13.7-.13,81.41,0,162.83-.01,244.24,0,.31,0,.62.09,1.24.19.16,4.91.05,9.82.06,15-1.12,0-1.97,0-2.83,0-11.52.01-23.03,0-34.55.05-2.07,0-4.15.21-6.22.38-2.74.24-4.78,1.56-6.22,3.94-1.29,2.14-2.36,4.34-2.89,6.8-1.5,6.93,2.48,12.32,9.56,12.8,2.55.17,5.12.12,7.67.12,10.8.01,21.59,0,32.39,0h2.88Z"/>
  <path d="m359.12,752.49h-41.27v-54.49h41.27v54.49Z"/>
  <path d="m656.25,752.12v-53.85c.59.17,1.05.22,1.43.42,5.13,2.6,10.23,5.24,15.37,7.8,1.46.72,2.19,1.72,2.22,3.35.05,3.19.26,6.38.24,9.57-.03,6.31-.16,12.61-.28,18.92-.06,3.15-1.51,5.53-4.3,6.95-4.48,2.27-9.02,4.43-13.54,6.63-.26.13-.59.12-1.14.22Z"/>
  <path d="m699.89,729.68v-8.14c1.6.1,4.16,1.32,7.71,3.7-2.43,1.64-4.93,2.84-7.71,4.44Z"/>
  <path d="m724.37,430.69v35.18h-84.59c-.54-1.58-.73-31.45-.19-35.18h84.78Z"/>
  <path d="m689.05,325.22c0,3.03.01,6.06,0,9.09,0,.88-.04,1.76-.17,2.62-.84,5.62-7.22,8.24-11.85,4.87-1.45-1.06-2.17-2.55-2.32-4.28-.69-8.29-.65-16.58,0-24.86.23-2.93,1.96-4.92,4.84-5.47,1.44-.28,3.02-.23,4.47.02,2.53.44,4.15,2.14,4.54,4.64.36,2.35.38,4.76.46,7.14.07,2.07.01,4.15.01,6.22,0,0,0,0,.01,0Z"/>
  <path d="m671.94,498.84v-7.32h20.15v7.32h-20.15Z"/>
  <path class="cls-1" d="m537.27,543.73c-.35,36.73-30.14,64.52-65.15,64.13-35.2-.39-63.93-29.32-63.36-64.79.58-36.02,29.94-64.43,65.96-63.48,34.76.92,62.63,29.91,62.54,64.14Zm-90.88-28.72c-.54.37-.82.53-1.05.73-.59.54-1.2,1.07-1.74,1.65-8.72,9.37-11.71,20.46-9.87,32.98,3.08,20.85,25.2,38.83,49.78,31.75,7.89-2.27,14.62-6.38,19.66-12.98.94-1.23,1.68-2.62,2.69-4.22-14.23-1.77-27.06-6.02-37.89-15.12-10.9-9.15-17.37-21.1-21.58-34.8Zm24.01-10.11c-.24,3.06.33,5.86,1.15,8.62,4.63,15.55,21.56,27.21,38.85,26.25.52-.03,1.03-.24,1.72-.41-.14-1.32-.18-2.51-.39-3.68-2.74-15.24-16.24-28.58-31.52-31.03-3.22-.52-6.49-.57-9.81.25Z"/>
  <path d="m446.39,515c4.21,13.7,10.68,25.65,21.58,34.8,10.84,9.1,23.66,13.35,37.89,15.12-1.01,1.6-1.75,2.99-2.69,4.22-5.04,6.61-11.77,10.71-19.66,12.98-24.58,7.07-46.7-10.9-49.78-31.75-1.85-12.52,1.14-23.62,9.87-32.98.54-.58,1.15-1.11,1.74-1.65.23-.21.51-.36,1.05-.73Z"/>
  <path d="m470.4,504.9c3.32-.82,6.6-.76,9.81-.25,15.28,2.45,28.78,15.79,31.52,31.03.21,1.16.25,2.35.39,3.68-.69.17-1.2.38-1.72.41-17.29.96-34.22-10.7-38.85-26.25-.82-2.76-1.39-5.56-1.15-8.62Z"/>
</svg>