<?xml version="1.0" encoding="UTF-8"?>
<svg id="Layer_1" data-name="Layer 1" xmlns="http://www.w3.org/2000/svg" viewBox="0 0 965.33 985.65">
  <defs>
    <style>
      .cls-1 {
        stroke-width: 9px;
      }

      .cls-1, .cls-2, .cls-3, .cls-4 {
        fill: #f4f4f5;
      }

      .cls-1, .cls-2, .cls-3, .cls-4, .cls-5 {
        stroke: #f4f4f5;
        stroke-miterlimit: 10;
      }

      .cls-2 {
        stroke-width: 12px;
      }

      .cls-3 {
        stroke-width: 7px;
      }

      .cls-4 {
        stroke-width: .5px;
      }

      .cls-6 {
        fill: #181818;
      }

      .cls-5 {
        fill: none;
        stroke-width: 34px;
      }
    </style>
  </defs>
  <rect class="cls-6" y="0" width="965.33" height="985.65" rx="81.12" ry="81.12"/>
  <rect class="cls-5" x="43.93" y="47.03" width="873.2" height="891.58" rx="73.38" ry="73.38"/>
  <path class="cls-2" d="m459.39,631.63c-2.76,0-4.52,0-6.28,0-100.09.01-200.19-.01-300.28.07-14.35.01-24.99-5.84-30.83-18.99-1.84-4.13-2.52-9.09-2.53-13.67-.15-74.53-.11-149.06-.11-223.58,0-54.75-.02-109.5,0-164.25,0-16.3,10.21-28.71,26.02-31.72,1.99-.38,4.07-.4,6.11-.4,219.36-.02,438.72-.02,658.09,0,18.82,0,32.15,13.47,32.15,32.48.01,129.16,0,258.31-.01,387.47,0,19.42-13.21,32.61-32.73,32.62-70.91.03-141.82,0-212.73-.01-29.91,0-59.82,0-89.72,0-1.27,0-2.55,0-3.82,0-.09.27-.17.54-.26.81,5.7,4.73,11.38,9.48,17.09,14.19,26.88,22.16,53.75,44.33,80.7,66.39,1.52,1.24,3.82,2.14,5.76,2.16,44.97.52,81.76,31.47,89.9,75.92.82,4.48,1.02,9.1,1.17,13.66.22,6.37-2.5,9.03-8.87,9.03-22.91.01-45.83,0-68.74,0-115.05,0-230.1,0-345.14,0-8.44,0-10.63-2.3-10.31-10.84,1.61-43.63,34.43-80.49,77.37-86.74,4.63-.67,9.38-.53,14.04-1.01,1.68-.17,3.62-.66,4.87-1.7,31.96-26.23,63.84-52.56,95.72-78.88.88-.73,1.71-1.52,3.37-3.01Zm-324.94-89.29h692.16c0-1.91,0-3.57,0-5.23,0-108.17-.09-216.34.12-324.52.02-11.3-7.79-18.53-18.6-18.52-218.39.18-436.79.18-655.18,0-10.87,0-18.64,7.27-18.62,18.5.21,108.17.12,216.34.12,324.52,0,1.66,0,3.32,0,5.25Zm692.16,15.54H134.86c-.16.55-.35.89-.35,1.22,0,14.23-.09,28.46.08,42.68.06,5.33,2.76,9.78,7.38,12.08,3.5,1.74,7.77,2.71,11.7,2.71,112.02.15,224.03.13,336.05.13,70.9,0,141.81,0,212.71-.01,35.45,0,70.9.02,106.36-.02,11.25-.01,17.75-6.53,17.82-17.72.04-8.08,0-16.16,0-24.24,0-5.53,0-11.05,0-16.84Zm-145.03,240.66c0-.73.05-1.09,0-1.44-4.99-31.06-22.24-52.03-51.76-62.95-11.59-4.29-23.68-3.78-35.71-3.79-68.85,0-137.7,0-206.55,0-10.01,0-20.01.15-30.02-.02-34.56-.56-64.27,20.24-74.84,52.73-1.6,4.93-2.44,10.1-3.71,15.47h402.59Zm-201.05-164.64c-32.73,27-65.27,53.84-98.32,81.11h196.64c-33.1-27.3-65.6-54.11-98.33-81.11Z"/>
  <path class="cls-1" d="m330.2,231.2c49.32,0,98.63,0,147.95,0,7.57,0,9.86,2.31,9.86,9.95,0,86.21-.02,172.43-.03,258.64,0,7.48-2.44,9.89-10.03,9.89-98.63.01-197.27.02-295.9.02-7.55,0-10.01-2.44-10.01-9.93,0-86.21-.01-172.43-.02-258.64,0-7.63,2.3-9.95,9.87-9.95,49.44,0,98.87,0,148.31,0Zm142.68,15.42H187.23v247.76h285.65v-247.76Z"/>
  <path class="cls-3" d="m740.77,341.14c-.21,14.72-1.35,25.33-5.12,35.53-6.48,17.55-19.22,29.16-35.74,36.88-3.78,1.76-5.12,4.05-4.54,7.8,1.56,9.98,3.51,19.91,4.72,29.94,1.06,8.82,1.33,17.73,1.92,26.6.05.83-.09,1.69-.25,2.51-1.78,8.7-6.98,11.26-13.87,5.66-7.34-5.96-13.94-12.93-20.29-19.97-8.39-9.31-16.28-19.07-24.26-28.74-1.69-2.05-3.44-2.76-6.09-2.9-33.24-1.7-61.07-14.42-80.69-41.91-26.93-37.72-19.01-87.21,18.04-116.77,41.89-33.42,104.83-29.58,142,8.86,16.23,16.79,24.27,37.05,24.17,56.51Zm-51.33,128.54c.34-.18.68-.36,1.02-.54-.2-1.03-.33-2.08-.6-3.09-1.84-6.97-4.16-13.85-5.45-20.93-1.78-9.79-3.19-19.69-3.98-29.61-.5-6.27,1.98-11.33,8.84-13.63,4.16-1.39,8.03-3.83,11.83-6.13,11.71-7.08,19.27-17.32,22.31-30.67,1.06-4.67,1.59-9.5,1.97-14.29,1.88-23.38-5.76-43.27-23.04-59.03-32.69-29.8-82.6-31.64-117.72-4.71-32.18,24.68-38.42,67.61-13.88,99.38,16.65,21.57,39.51,31.68,66.4,32.81,6.17.26,11.35,1.92,15.78,5.94,3.3,2.99,6.6,6.07,9.35,9.54,7.11,8.96,13.89,18.19,20.86,27.27,2.02,2.63,4.21,5.13,6.32,7.69Z"/>
  <path class="cls-4" d="m736.41,577.11c6.24,0,11.2,4.92,11.22,11.16.02,6.33-4.79,11.26-11.04,11.31-6.4.05-11.49-4.98-11.45-11.32.04-6.18,5.07-11.15,11.28-11.16Z"/>
  <path class="cls-4" d="m774.16,599.59c-6.16-.04-11.26-5.13-11.26-11.23,0-6.24,5.28-11.36,11.62-11.25,6.2.11,11.1,5.2,11,11.43-.1,6.27-5.05,11.09-11.35,11.05Z"/>
  <path class="cls-4" d="m698.41,599.59c-6.28-.06-11.04-4.95-11.02-11.31.02-6.29,4.9-11.17,11.18-11.17,6.3,0,11.5,5.28,11.33,11.51-.17,6.15-5.27,11.03-11.48,10.97Z"/>
  <path class="cls-3" d="m258.98,370.13c0-24.11-.01-48.22,0-72.32,0-8.64,5.36-11.77,12.79-7.43,41.56,24.3,83.1,48.63,124.63,72.98,6.41,3.76,6.53,10.21.18,13.95-41.82,24.56-83.67,49.09-125.54,73.56-6.33,3.7-12.02.37-12.04-6.96-.05-24.59-.02-49.18-.02-73.77Zm15.23,61.5c35.07-20.54,69.58-40.75,104.56-61.24-35.03-20.52-69.58-40.74-104.56-61.23v122.47Z"/>
  <path class="cls-3" d="m640.83,352.09c-12.42,0-24.84.01-37.26,0-5.51,0-8.7-2.74-8.73-7.42-.04-4.57,3.3-7.65,8.6-7.66,24.84-.05,49.69-.05,74.53-.02,5.32,0,8.76,3.06,8.8,7.54.04,4.6-3.46,7.56-9.03,7.57-12.3.01-24.6,0-36.9,0Z"/>
  <path class="cls-3" d="m640.74,370.76c12.66,0,25.32.02,37.98-.01,3.18,0,5.63,1.18,7.15,4,1.46,2.7,1.15,5.36-.55,7.84-1.84,2.7-4.64,3.18-7.65,3.18-12.42-.01-24.84,0-37.25,0-12.3,0-24.6.04-36.89-.02-5.2-.02-8.34-2.57-8.68-6.78-.39-4.8,2.75-8.15,7.91-8.17,12.66-.06,25.32-.02,37.98-.03Z"/>
  <path class="cls-3" d="m641.06,303.51c12.3,0,24.6-.01,36.9,0,5.37,0,8.76,2.9,8.8,7.4.04,4.52-3.34,7.63-8.67,7.64-24.96.05-49.92.05-74.89,0-5.26-.01-8.51-3.23-8.37-7.87.14-4.49,3.29-7.16,8.6-7.17,12.54-.02,25.08,0,37.62,0Z"/>
</svg>