<?xml version="1.0" encoding="UTF-8"?>
<svg id="Layer_1" data-name="Layer 1" xmlns="http://www.w3.org/2000/svg" viewBox="0 0 965.33 985.65">
  <defs>
    <style>
      .cls-1 {
        fill: #181818;
      }

      .cls-2 {
        fill: none;
        stroke-width: 34px;
      }

      .cls-2, .cls-3 {
        stroke: #f4f4f5;
        stroke-miterlimit: 10;
      }

      .cls-3 {
        fill: #f4f4f4;
        stroke-width: 2px;
      }
    </style>
  </defs>
  <rect class="cls-1" y="0" width="965.33" height="985.65" rx="81.12" ry="81.12"/>
  <rect class="cls-2" x="43.93" y="47.03" width="873.2" height="891.58" rx="73.38" ry="73.38"/>
  <g>
    <path class="cls-3" d="m617.12,333.82c12.58,15.51,24.96,30.95,37.61,46.17,1.34,1.61,4.18,2.72,6.35,2.76,13.01.25,26.04.38,39.04-.09,2.52-.09,6.07-2.43,7.24-4.71,11.43-22.34,8.62-19.39,33.24-19.57,2.3-.02,4.61-.17,6.89.03,9.67.85,16.9-.37,22.95-10.54,8.15-13.7,26.65-17.45,41.61-11.64,15.55,6.04,24.49,20.75,23.27,38.27-1.04,15.04-12.81,28.25-28.55,32.07-14.95,3.63-31.8-3.03-39.28-17.02-3.16-5.9-6.71-7.51-12.52-6.75-.5.07-1.03.09-1.53,0-14.46-2.57-24.94,1.18-29.24,16.85-1.54,5.6-6.74,7.79-12.78,7.71-13.21-.16-26.41-.05-38.63-.05,5.99,24.42,11.89,48.44,18.05,73.54,17.79,0,37.39.16,56.98-.27,1.83-.04,4.18-3.55,5.26-5.92,7.93-17.42,21.14-28.15,40.15-30.28,19.89-2.23,36.16,5.15,47.29,22.02,15.97,24.19,7.24,56.78-18.44,70.2-25.39,13.27-56.76,2.15-67.7-24.47-2.2-5.36-4.67-7.12-10.43-6.99-18.31.43-36.63.16-53.02.16-6.42,25.14-12.56,49.14-18.79,73.55,11.28,0,23.94.4,36.57-.14,8.63-.37,14.59,2.75,17.12,10.81,3.59,11.47,10.71,16.26,22.6,13.87,1.72-.34,3.6-.28,5.34,0,6.79,1.06,10.67-1.29,14.31-7.71,8.12-14.28,25.51-20.1,41.21-15.36,16.16,4.88,26.34,19,26.11,36.25-.22,16.37-11.01,30.02-27.33,34.54-15.6,4.33-32.79-2.24-40.72-16.69-2.94-5.36-6.04-7.04-11.79-6.75-9.17.45-18.38-.16-27.56.21-7.4.3-12.94-2.62-14.84-9.43-3.83-13.7-12.75-16.88-25.71-15.35-8.56,1.01-17.34-.04-26.01.34-2.35.1-5.31,1.48-6.8,3.26-12.54,15.02-24.79,30.27-36.96,45.23.22.02,2.06.38,3.9.39,13.78.05,27.57.17,41.35-.03,7.16-.1,11.57,3.08,13.69,9.75,2.31,7.27,4.85,14.49,6.8,21.86,1.03,3.89,2.77,5.17,6.82,5.34,7.44.31,12.67-.46,17.11-8.43,7.97-14.29,25.85-19.58,41.45-14.56,15.84,5.1,25.74,19.52,25.31,36.88-.4,16.09-11.68,29.75-28.07,33.99-15.23,3.94-32.23-2.79-39.98-16.98-2.94-5.38-6.08-7.16-11.81-6.7-5.58.45-11.23-.04-16.84.13-6.86.21-11.07-3.18-13.23-9.38-2.59-7.45-4.71-15.08-7.68-22.37-.87-2.14-3.92-4.79-6-4.82-22.97-.34-45.94-.35-68.91-.07-3.35.04-6.84,1.72-9.97,3.23-102.78,49.48-223.55,9.61-276.61-91.38-62.03-118.06,4.4-265.65,134.09-297.68,49.39-12.19,97.04-6.99,142.96,14.94,4.17,1.99,9.16,3.09,13.8,3.16,20.93.33,41.86.03,62.79.24,4.49.04,6.92-.97,8.04-5.74,1.62-6.92,4.1-13.64,6.21-20.44,2.22-7.18,6.65-11.28,14.59-10.68,2.03.15,4.1-.15,6.12.05,10.93,1.1,19.38-.07,26.37-11.44,8.33-13.56,26.99-16.54,41.89-10.2,15.2,6.48,23.59,20.93,22.16,38.19-1.24,14.94-13.34,28.22-28.96,31.77-14.97,3.4-31.26-3.8-39.36-17.4-3.21-5.39-13.89-8.98-19.28-6.16-1.3.68-2.19,2.65-2.7,4.21-2.3,7.01-4.41,14.08-6.54,21.15-2.26,7.5-6.82,11.33-15.1,11.14-15.26-.35-30.54-.1-44.98-.1Zm-211.53,146.53h148.98c-3.09-24.75-6.1-48.82-9.08-72.66h-131.11c-2.92,24.1-5.81,48.02-8.79,72.66Zm148.95,25.48h-148.97c3.1,24.76,6.11,48.83,9.09,72.64h131.1c2.92-24.11,5.81-48.03,8.78-72.64Zm-164.63-98.51c-22.8,0-45.73-.12-68.65.21-1.99.03-4.73,2.58-5.79,4.65-10.95,21.3-17.1,43.97-18.93,68.28h84.34c3-24.28,5.96-48.2,9.03-73.13Zm-.22,171.53c-2.76-24.69-5.45-48.82-8.16-73.03h-84.18c1.29,25.07,7.95,48.09,19,69.9.73,1.44,2.99,2.98,4.55,2.99,22.91.19,45.83.13,68.78.13Zm273.9-73.01h-84.3c-2.84,24.53-5.61,48.44-8.46,73,22.83,0,45.74.12,68.63-.23,1.9-.03,4.44-2.94,5.52-5.09,10.61-21.15,16.8-43.56,18.6-67.68Zm-92.54-98.51c2.8,24.82,5.53,48.96,8.24,72.94h84.34c-1.84-24.21-7.91-46.67-18.53-67.83-1.06-2.12-3.72-4.87-5.67-4.9-22.9-.34-45.8-.22-68.38-.22Zm-33.03-24.74c-3.22-8.39-5.78-16.07-9.07-23.42-7.11-15.89-15.43-31.06-29.48-42.07-12.81-10.04-25.78-10.37-38.38-.25-20.97,16.86-30.13,40.75-38.73,65.74h115.66Zm-117.27,220.97c7.56,15.68,13.5,30.28,21.45,43.69,5.07,8.55,12.34,16.25,20.01,22.69,10.79,9.06,22.66,9.31,33.84,1.43,23.36-16.46,32.53-41.73,41.82-67.8h-117.12Zm113.09-285.95c13.39,20.62,23.04,40.64,29.1,62.31.34,1.22,2.42,2.79,3.7,2.8,19.51.18,39.01.12,60.29.12-24.69-31.73-54.54-52.7-93.08-65.23Zm93.1,285.7c-18.74,0-35.33.47-51.88-.2-8.33-.34-12.91,1.24-14.63,10.4-1.43,7.62-4.95,14.97-8.35,22.05-5.14,10.68-10.98,21.02-17.12,32.64,37.41-12.19,67.26-33.15,91.98-64.9Zm-203.46-284.8c-35.76,11.7-65.68,32.64-90.27,64.36h50.32c12.63,0,12-.26,16.62-11.57,7.26-17.77,15.48-35.15,23.33-52.8Zm-90.26,284.81c24.75,31.76,54.51,52.8,92.76,65.22-13.22-20.28-22.88-40.03-28.88-61.5-.43-1.56-3.07-3.54-4.71-3.56-19.05-.25-38.09-.16-59.17-.16Zm489.89-110.37c-.16-13.13-11.55-24.39-24.61-24.33-13.04.06-24.42,11.57-24.32,24.6.1,13.09,11.5,24.37,24.6,24.34,13.01-.03,24.49-11.64,24.33-24.61Zm-85.61-195.91c6.32-.07,12.14-6.02,12.07-12.31-.08-6.33-6.02-12.16-12.31-12.07-6.36.1-12.13,5.98-12.07,12.31.06,6.32,6,12.14,12.31,12.07Zm60.93,61.37c-6.37.15-12.1,6.08-11.98,12.4.12,6.33,6.1,12.11,12.4,11.98,6.32-.13,12.11-6.12,11.98-12.41-.13-6.34-6.12-12.13-12.4-11.97Zm.42,269.37c6.32-.13,12.11-6.12,11.98-12.41-.13-6.34-6.12-12.13-12.4-11.97-6.37.15-12.1,6.08-11.98,12.4.12,6.33,6.1,12.11,12.4,11.98Zm-49.29,73.77c.14-6.29-5.64-12.29-11.96-12.41-6.32-.12-12.25,5.6-12.41,11.97-.15,6.29,5.61,12.26,11.96,12.41,6.28.14,12.27-5.63,12.41-11.97Z"/>
    <path class="cls-3" d="m184.1,407.37c8.82-20.05,17.32-39.07,25.39-58.28.72-1.72-.66-5.25-2.2-6.85-11.84-12.33-23.97-24.39-35.99-36.55-9.31-9.43-9.4-14.73-.18-23.92,32.88-32.81,65.79-65.59,98.73-98.35,8.17-8.13,13.97-8.07,22.26.14,12.33,12.21,24.69,24.4,36.78,36.84,3.02,3.11,5.25,3.28,9.18,1.55,16.52-7.27,33.14-14.36,49.99-20.79,4.96-1.89,6.5-3.96,6.4-9.13-.34-17.35-.18-34.7-.11-52.06.04-10.1,4.28-14.3,14.47-14.33,18.89-.06,37.78-.06,56.67,0,10.22.03,14.52,4.21,14.54,14.27.05,35.22.03,70.43.01,105.65,0,10.97-3.97,15.36-14.85,16.04-31.46,1.96-61.34,9.94-89.12,24.68-69.68,36.98-112.46,94.3-124.18,172.41-16.58,110.43,43.86,212.28,147.64,252.36,21.56,8.33,43.99,12.6,66.93,14.65,9.99.89,13.57,4.77,13.58,14.6.04,35.22.04,70.43,0,105.65-.01,10.22-4.23,14.52-14.26,14.56-19.14.07-38.29.08-57.43,0-9.64-.04-13.94-4.38-13.97-14.06-.07-19.63-.02-39.26-.02-57.56-19.96-8.76-38.99-17.25-58.19-25.32-1.73-.73-5.28.63-6.88,2.17-12.7,12.2-25.08,24.72-37.66,37.04-8.31,8.13-13.98,8.09-22.24-.18-33.01-33.05-65.98-66.13-98.92-99.24-8.18-8.22-8.17-14.05-.05-22.24,12.04-12.14,24.05-24.32,36.3-36.25,3.39-3.3,4.04-5.73,1.94-10.39-7.4-16.45-14.23-33.17-20.78-49.99-1.64-4.22-3.34-5.89-8-5.81-17.61.29-35.22.16-52.84.1-10.17-.04-14.46-4.25-14.47-14.34-.04-47.47-.04-94.93,0-142.4,0-10.58,4.17-14.64,14.9-14.67,19.14-.04,38.27-.01,56.65-.01Zm97.21,370.32c1.64-1.54,3.52-3.19,5.29-4.96,11.37-11.37,22.76-22.72,34.04-34.17,5.12-5.2,10.7-6.7,17.2-2.89,22.32,13.07,46.04,22.79,70.98,29.59,6.8,1.86,10.06,6.28,10,13.44-.12,16.59-.04,33.17-.04,49.76,0,2.43,0,4.86,0,7.27h36.29v-86.32c-129.2-14.19-225.42-117.71-231.57-244.18-2.78-57.01,11.87-109.75,44.35-156.75,45.3-65.56,108.55-102.1,187.31-111.8v-86.08h-36.37c0,18.35.02,36.18,0,54-.01,10.49-2.38,12.43-12.35,16.3-21.77,8.45-43.43,17.27-64.72,26.84-11.41,5.13-14.68,5.58-23.52-3.36-12.16-12.3-24.18-24.73-35.39-36.22-29.71,29.59-58.35,58.1-87.96,87.59,12.81,12.48,26.13,25.46,39.45,38.44,4.89,4.77,6.9,10.27,3.22,16.52-13.25,22.54-22.92,46.54-29.87,71.7-1.79,6.48-6.29,9.49-13.07,9.43-13.53-.11-27.06-.03-40.58-.03-5.52,0-11.03,0-16.41,0v122.55c18.44,0,36.29-.02,54.14,0,10.07.01,12.36,2.51,15.94,11.79,8.33,21.55,16.76,43.1,26.31,64.12,6.09,13.4,6.78,15.34-3.87,25.89-11.91,11.8-23.98,23.44-35.21,34.41,29.46,29.69,57.79,58.24,86.41,87.1Z"/>
    <path class="cls-3" d="m288.06,285.99c-4.79,4.9-10.21,10.46-15.46,15.84-8.55-8.7-16.87-17.15-25.47-25.9,5.15-4.82,10.83-10.13,15.99-14.96,8,8.02,16.5,16.54,24.95,25.01Z"/>
    <path class="cls-3" d="m288.08,700.41c-8.21,8.22-16.59,16.61-25.32,25.35-4.52-5.07-9.68-10.86-14.25-15.98,7.5-7.54,15.96-16.05,24.67-24.81,4.57,4.74,9.96,10.33,14.9,15.45Z"/>
    <path class="cls-3" d="m197.7,504.97h-35.76v-23.51h35.76v23.51Z"/>
  </g>
</svg>