<?xml version="1.0" encoding="UTF-8"?>
<svg id="Layer_1" data-name="Layer 1" xmlns="http://www.w3.org/2000/svg" viewBox="0 0 965.04 985.39">
  <defs>
    <style>
      .cls-1 {
        fill: #fff;
      }
    </style>
  </defs>
  <path d="m965.04,74.36v836.71c-.15.69-.35,1.38-.45,2.08-.33,2.37-.5,4.77-.96,7.11-7,35.74-38.57,65.04-79.2,65.06-267.76.09-535.51.06-803.27.03-15.64,0-30.26-4.06-43.34-12.68C12.7,956.13.08,932.47.07,902.57-.04,629.36,0,356.15.03,82.94c0-6.8.72-13.55,2.27-20.21C10.6,27.03,41.98,2.01,76.36.39,77.14.35,77.92.13,78.7,0,348.07,0,617.44,0,886.82,0c.38.11.75.27,1.14.31,2.86.27,5.75.32,8.57.8,23.14,3.87,41.51,15.41,54.79,34.74,7.62,11.1,12.31,23.38,13.3,36.93.04.54.27,1.06.42,1.59ZM27.13,492.66c0,124.09,0,248.18,0,372.27,0,5.77.51,11.48,1.58,17.16,6.35,33.82,32.27,61.55,65.67,70.27,8.41,2.2,16.96,2.97,25.64,2.97,84.77-.04,169.55-.02,254.32-.02,155.63,0,311.26,0,466.89.02,7.54,0,15.02-.5,22.38-2.18,41.43-9.48,70.46-45.8,70.46-88.27.01-248.1,0-496.21,0-744.31,0-7.39-.88-14.66-2.62-21.84-9.65-39.73-46.14-68.52-86.93-68.53-242.64,0-485.29,0-727.93,0-7.15,0-14.19.93-21.12,2.67C54.67,43.11,27.02,79.97,27.07,120.87c.15,123.93.06,247.86.06,371.79Z"/>
  <path class="cls-1" d="m27.13,492.66c0-123.93.1-247.86-.06-371.79-.05-40.9,27.59-77.76,68.4-88,6.93-1.74,13.96-2.67,21.12-2.67,242.64,0,485.29,0,727.93,0,40.79,0,77.27,28.8,86.93,68.53,1.75,7.18,2.62,14.45,2.62,21.84,0,248.1,0,496.21,0,744.31,0,42.47-29.03,78.79-70.46,88.27-7.36,1.69-14.84,2.18-22.38,2.18-155.63-.03-311.26-.02-466.89-.02-84.77,0-169.55-.01-254.32.02-8.68,0-17.23-.77-25.64-2.97-33.4-8.71-59.32-36.45-65.67-70.27-1.07-5.68-1.58-11.39-1.58-17.16,0-124.09,0-248.18,0-372.27Zm872.97.05V232.22c0-37.02,0-74.04,0-111.06,0-9.27-1.79-18.18-6.27-26.32-10.9-19.8-27.68-30.52-50.4-30.56-88.45-.16-176.9-.07-265.36-.07-153.23,0-306.46,0-459.69.03-3.35,0-6.74.14-10.03.68-27.23,4.44-47.26,28.03-47.26,55.58,0,248.18,0,496.37.02,744.55,0,2.39.09,4.81.46,7.17,3.42,21.57,15.2,36.67,35.32,45.18,7.33,3.1,15.09,3.93,23,3.93,240.4-.02,480.81-.02,721.21-.02.48,0,.96,0,1.44,0,13.97.12,26.49-4.05,37.18-13.07,13.58-11.46,20.35-26.24,20.36-43.98.04-123.85.02-247.7.02-371.55Z"/>
  <path d="m900.1,492.72c0,123.85.02,247.7-.02,371.55,0,17.73-6.78,32.52-20.36,43.98-10.69,9.02-23.21,13.19-37.18,13.07-.48,0-.96,0-1.44,0-240.4,0-480.81,0-721.21.02-7.91,0-15.66-.83-23-3.93-20.12-8.51-31.9-23.62-35.32-45.18-.37-2.36-.46-4.78-.46-7.17-.02-248.18-.02-496.37-.02-744.55,0-27.55,20.02-51.14,47.26-55.58,3.29-.54,6.69-.68,10.03-.68,153.23-.03,306.46-.03,459.69-.03,88.45,0,176.9-.09,265.36.07,22.72.04,39.49,10.76,50.4,30.56,4.48,8.14,6.27,17.05,6.27,26.32,0,37.02,0,74.04,0,111.06v260.5Zm-210.19-125.83c2.07.33,3.03,1.4,4.04,2.41,10.26,10.21,20.49,20.45,30.79,30.62,2.73,2.69,5.53,5.33,8.54,7.7,3.97,3.12,8.58,4.46,13.69,4.07,10.77-.81,18.87-11.49,16.72-22.08-.91-4.47-3.17-8.15-6.33-11.35-3.93-3.98-7.87-7.96-11.83-11.91-19.29-19.27-38.57-38.56-57.92-57.78-2.14-2.12-4.54-4.08-7.09-5.67-6.36-3.95-12.92-3.94-19.22.12-2.73,1.76-5.27,3.92-7.57,6.22-22.78,22.68-45.5,45.43-68.22,68.17-1.24,1.24-2.44,2.55-3.49,3.95-7,9.38-3.65,19.87,1.6,25.54,3.09,3.34,6.92,5.13,11.55,4.81,6.5-.46,12.26-2.84,17.2-7.09,2-1.72,3.93-3.52,5.8-5.39,10.48-10.44,20.93-20.91,31.4-31.36.61-.61,1.23-1.2,2.18-2.12.08,1.14.18,1.82.18,2.51.02,2.8.02,5.6,0,8.4-.07,13.43-.09,26.86-.25,40.29-.1,8.26-1.26,16.4-3.15,24.44-2.95,12.55-8.67,23.84-15.69,34.52-12.16,18.53-28.19,32.53-48.77,41.08-13.96,5.8-28.6,8.48-43.63,9.28-4.74.25-9.13,1.56-12.97,4.42-10.11,7.52-9.8,23.11.6,30.23,4.04,2.77,8.59,3.88,13.42,3.64,8.46-.43,16.9-1.1,25.26-2.65,31.94-5.95,59.38-20.38,81.97-43.74,18.01-18.62,30.07-40.6,36.22-65.8,3.34-13.68,4.28-27.61,4.59-41.61.22-9.83.28-19.66.37-29.5.05-4.71,0-9.42,0-14.37Zm-453.99,368.09c-41.55.12-74.22,34.86-73.94,74.48.29,40.32,33.59,73.8,73.92,73.78,40.41-.02,74.13-33.81,74.09-74.22-.05-40.2-33.95-74.09-74.07-74.03ZM671.2,108.81v-.02c-3.36,0-6.72-.03-10.07.02-.86.01-1.74.18-2.56.43-1.68.5-3.32,1.14-5,1.64-6.99,2.09-13.68,4.88-19.97,8.61-30.01,17.76-41.08,50.56-34.27,79.79,5.34,22.96,19.13,39.57,39.97,50.27,14.16,7.28,29.23,9.48,44.94,6.65,11.47-2.07,21.75-6.96,30.94-14.01,19.2-14.72,29.41-34.25,29.95-58.46.32-14.41-3.69-27.82-11.6-39.92-8.25-12.62-18.96-22.39-33.24-27.86-2.76-1.06-5.49-2.18-8.24-3.25-3.34-1.31-6.59-3.1-10.06-3.75-3.48-.65-7.17-.14-10.77-.14Zm-226.63,639.39c-.81-1.05-1.32-1.89-2-2.56-11.52-11.55-23.06-23.08-34.59-34.6-2.62-2.61-5.43-4.99-8.85-6.48-6.69-2.91-13.2-2.49-19.04,1.95-5.93,4.52-8.37,10.71-7.37,18.16.62,4.64,2.97,8.38,6.22,11.62,8.1,8.06,16.23,16.11,24.3,24.21,5.02,5.04,9.95,10.16,15.04,15.36-.5.39-1.19.91-1.86,1.46-1.74,1.41-3.59,2.7-5.18,4.26-9.55,9.44-19.05,18.95-28.54,28.45-1.92,1.92-3.86,3.84-5.62,5.91-6.06,7.14-6.17,17.21-.37,24.53,5.65,7.13,14.72,8.82,23.33,4.36,3.44-1.79,6.41-4.2,9.14-6.92,11.2-11.19,22.39-22.38,33.59-33.57.6-.6,1.22-1.18,1.88-1.81.78.69,1.4,1.19,1.97,1.75,8.91,8.84,17.81,17.69,26.73,26.53,3.46,3.43,6.9,6.9,10.42,10.27,5.02,4.81,10.99,7.23,17.95,5.95,12.41-2.29,21.01-16.38,12.17-29.49-1.42-2.1-3.25-3.94-5.06-5.75-11.76-11.76-23.57-23.47-35.35-35.2-.61-.61-1.2-1.24-1.7-1.75,4.13-3.89,8.16-7.65,12.14-11.45,2.48-2.38,4.91-4.81,7.33-7.25,6.82-6.87,13.68-13.69,20.4-20.64,4.9-5.06,6.72-11.16,5.15-18.09-2.8-12.33-16.25-18.37-27.28-12.18-2.48,1.39-4.83,3.18-6.87,5.17-9.66,9.44-19.2,19.02-28.78,28.55-2.94,2.92-5.86,5.86-9.3,9.29Zm-93.08-378.25c-3.06,3.18-5.68,5.97-8.37,8.69-10.3,10.39-20.61,20.77-30.96,31.11-4.97,4.96-6.87,10.77-5.53,17.7,2.01,10.39,11.36,16.86,21.81,15.04,5.04-.88,8.96-3.67,12.51-7.11,2.87-2.78,5.7-5.61,8.52-8.44,9.15-9.16,18.3-18.34,27.45-27.5.6-.6,1.22-1.17,1.87-1.78.48.44.78.7,1.06.98,8.74,8.78,17.48,17.57,26.22,26.36,3.89,3.91,7.72,7.88,11.68,11.72,4.87,4.73,10.58,6.95,17.48,5.65,10.75-2.03,17.23-11.13,15.55-21.95-.68-4.37-2.8-7.93-5.9-10.99-12.86-12.69-25.72-25.38-38.57-38.08-.48-.48-.91-1-1.54-1.69,5.33-3.25,9.48-7.47,13.65-11.66,9.02-9.07,18.11-18.07,27.06-27.21,4.67-4.77,6.47-10.55,5.14-17.17-.99-4.95-3.13-9.26-7.46-12.13-6.05-4.01-14.9-5.3-22.28.08-1.93,1.4-3.67,3.08-5.36,4.78-12.24,12.29-24.44,24.62-36.66,36.93-.42.42-.92.76-1.47,1.21-.56-.91-1.06-1.63-1.47-2.4-1.37-2.56-3.13-4.8-5.18-6.85-6.91-6.89-13.74-13.84-20.64-20.74-3.56-3.56-7.16-7.08-10.78-10.59-4.91-4.76-10.66-6.83-17.52-5.51-10.55,2.04-17.02,11.31-15.31,21.92.79,4.9,3.42,8.71,6.83,12.1,11.96,11.9,23.91,23.8,35.88,35.68.62.62,1.37,1.11,2.31,1.86Zm321.3,332.42c.71,1.31,1.28,2.54,2,3.68.94,1.47,1.84,3.03,3.05,4.27,6.87,7.04,13.81,14.01,20.76,20.97,3.95,3.96,7.97,7.86,11.95,11.79,2.6,2.58,5.52,4.66,9.17,5.38,7.66,1.51,14.25-.75,19.71-6.16,3.06-3.03,4.3-6.95,3.79-11.21-.78-6.42-3.24-12.16-7.6-17.02-1.39-1.55-2.78-3.09-4.25-4.57-10.44-10.48-20.89-20.94-31.34-31.41-.6-.6-1.16-1.24-1.95-2.08.86-.75,1.61-1.35,2.3-2.02,5.91-5.74,11.84-11.45,17.69-17.24,6.77-6.69,13.61-13.31,20.17-20.2,9.36-9.83,6.21-25.56-6.15-30.75-7.99-3.36-15.3-1.58-21.45,4.29-12.83,12.26-25.5,24.7-37.26,38.02-.57.65-1.17,1.27-1.82,1.97-.47-.41-.85-.7-1.18-1.03-5.72-5.81-11.42-11.64-17.16-17.44-7.09-7.16-14.15-14.35-21.33-21.41-5.15-5.06-11.4-7.04-18.49-5.46-12.19,2.71-18.01,15.37-12.37,26.61,1.67,3.32,3.96,6.19,6.57,8.81,10.54,10.6,21.1,21.18,31.66,31.77,1.86,1.86,3.72,3.72,5.72,5.72-1.16.78-2.17,1.41-3.13,2.11-1.42,1.03-2.95,1.96-4.19,3.19-11.06,10.99-22.09,22.01-33.07,33.07-4.09,4.13-5.9,9.21-5.74,15.01.34,12.42,13.23,21.79,25.49,16.2,3.98-1.82,7.49-4.3,10.57-7.36,8.75-8.66,17.45-17.37,26.19-26.05,3.8-3.77,7.63-7.5,11.67-11.46Zm-339.63-145.55c.16-10.52-8.1-18.7-19.07-18.89-10.29-.18-18.67,8.12-19.01,18.5-.33,9.73,7.42,19.37,19,19.63,10.46.24,18.92-8.36,19.08-19.25Zm73.91-10.96c-.03-10.59-8.77-19.56-19-19.49-9.97.07-18.94,9.13-18.97,19.16-.03,10.43,8.94,19.56,19.1,19.46,10.11-.1,18.89-9.01,18.86-19.13Zm75.67-.09c.02-10.26-8.85-19.34-18.94-19.4-10.11-.06-19.08,9-19.06,19.24.02,10.42,8.63,19.37,18.9,19.34,11-.03,19.09-9.57,19.1-19.19Zm-206.74,59.52c-.1-11.07-7.8-18.94-18.41-18.8-11.36.15-19.62,8.05-19.55,18.68.07,10.44,8.97,19.33,19.33,19.3,10.33-.02,18.73-8.68,18.63-19.19Zm-39.95,52.45c-10.7-.03-19.38,8.49-19.37,19.01.01,10.04,8.95,18.87,19.13,18.9,10.36.03,19.2-8.73,19.2-19.02,0-10.36-8.53-18.86-18.96-18.88Z"/>
  <path class="cls-1" d="m689.91,366.88c0,4.95.04,9.66,0,14.37-.09,9.83-.16,19.67-.37,29.5-.31,14-1.25,27.94-4.59,41.61-6.15,25.2-18.22,47.18-36.22,65.8-22.59,23.36-50.03,37.79-81.97,43.74-8.35,1.56-16.79,2.22-25.26,2.65-4.83.25-9.37-.87-13.42-3.64-10.4-7.11-10.72-22.71-.6-30.23,3.84-2.86,8.23-4.17,12.97-4.42,15.03-.8,29.67-3.48,43.63-9.28,20.58-8.55,36.61-22.55,48.77-41.08,7.01-10.69,12.74-21.98,15.69-34.52,1.89-8.04,3.05-16.18,3.15-24.44.16-13.43.18-26.86.25-40.29.02-2.8.01-5.6,0-8.4,0-.69-.1-1.37-.18-2.51-.95.92-1.57,1.51-2.18,2.12-10.46,10.46-20.92,20.92-31.4,31.36-1.87,1.86-3.8,3.67-5.8,5.39-4.94,4.24-10.7,6.63-17.2,7.09-4.62.33-8.45-1.46-11.55-4.81-5.25-5.68-8.6-16.16-1.6-25.54,1.05-1.4,2.25-2.71,3.49-3.95,22.72-22.74,45.44-45.49,68.22-68.17,2.31-2.3,4.84-4.46,7.57-6.22,6.29-4.06,12.86-4.07,19.22-.12,2.56,1.59,4.96,3.54,7.09,5.67,19.35,19.22,38.63,38.5,57.92,57.78,3.96,3.96,7.9,7.93,11.83,11.91,3.16,3.19,5.42,6.87,6.33,11.35,2.15,10.59-5.95,21.27-16.72,22.08-5.12.39-9.72-.96-13.69-4.07-3.01-2.36-5.82-5-8.54-7.7-10.3-10.17-20.53-20.41-30.79-30.62-1.01-1.01-1.98-2.08-4.04-2.41Z"/>
  <path class="cls-1" d="m235.92,734.98c40.12-.06,74.03,33.83,74.07,74.03.05,40.41-33.68,74.2-74.09,74.22-40.33.02-73.63-33.46-73.92-73.78-.28-39.62,32.38-74.36,73.94-74.48Zm-.13,38.2c-2.37.31-4.78.45-7.1.96-19.72,4.31-32,24.32-26.98,43.9,4.96,19.35,24.93,30.88,43.9,25.36,16.76-4.88,27.49-21.67,25.11-39.29-2.38-17.65-17.21-30.71-34.93-30.93Z"/>
  <path class="cls-1" d="m671.2,108.81c3.6,0,7.29-.51,10.77.14,3.46.65,6.72,2.44,10.06,3.75,2.75,1.08,5.49,2.2,8.24,3.25,14.28,5.47,24.99,15.25,33.24,27.86,7.91,12.1,11.92,25.51,11.6,39.92-.54,24.21-10.75,43.74-29.95,58.46-9.19,7.05-19.46,11.94-30.94,14.01-15.71,2.83-30.78.63-44.94-6.65-20.84-10.71-34.63-27.31-39.97-50.27-6.8-29.23,4.27-62.03,34.27-79.79,6.29-3.72,12.98-6.52,19.97-8.61,1.68-.5,3.32-1.14,5-1.64.83-.24,1.71-.41,2.56-.43,3.36-.05,6.72-.02,10.07-.02v.02Zm-35.52,73.85c.02,19.56,16.14,36.14,35.16,36.17,19.52.03,35.79-16.15,35.78-35.74-.02-19.46-15.54-35.6-35.52-35.6-19.52,0-35.44,15.94-35.42,35.17Z"/>
  <path class="cls-1" d="m444.57,748.19c3.44-3.43,6.36-6.36,9.3-9.29,9.58-9.53,19.11-19.1,28.78-28.55,2.04-1.99,4.39-3.78,6.87-5.17,11.03-6.2,24.48-.16,27.28,12.18,1.57,6.93-.25,13.03-5.15,18.09-6.73,6.95-13.59,13.77-20.4,20.64-2.42,2.44-4.85,4.88-7.33,7.25-3.98,3.8-8.01,7.56-12.14,11.45.49.51,1.08,1.14,1.7,1.75,11.79,11.73,23.59,23.44,35.35,35.2,1.8,1.8,3.64,3.65,5.06,5.75,8.84,13.11.24,27.2-12.17,29.49-6.96,1.28-12.92-1.13-17.95-5.95-3.52-3.37-6.96-6.83-10.42-10.27-8.91-8.84-17.81-17.69-26.73-26.53-.56-.56-1.18-1.06-1.97-1.75-.65.63-1.27,1.21-1.88,1.81-11.2,11.19-22.39,22.39-33.59,33.57-2.73,2.72-5.7,5.14-9.14,6.92-8.6,4.47-17.68,2.77-23.33-4.36-5.8-7.31-5.68-17.39.37-24.53,1.76-2.07,3.7-3.98,5.62-5.91,9.5-9.5,18.99-19,28.54-28.45,1.58-1.57,3.44-2.85,5.18-4.26.67-.54,1.36-1.06,1.86-1.46-5.09-5.2-10.02-10.33-15.04-15.36-8.07-8.1-16.19-16.14-24.3-24.21-3.26-3.24-5.6-6.98-6.22-11.62-1-7.44,1.44-13.64,7.37-18.16,5.84-4.45,12.35-4.86,19.04-1.95,3.42,1.49,6.24,3.86,8.85,6.48,11.54,11.53,23.08,23.06,34.59,34.6.67.67,1.18,1.51,2,2.56Z"/>
  <path class="cls-1" d="m351.49,369.95c-.94-.75-1.69-1.24-2.31-1.86-11.97-11.89-23.93-23.78-35.88-35.68-3.41-3.39-6.03-7.2-6.83-12.1-1.72-10.61,4.76-19.88,15.31-21.92,6.86-1.32,12.61.75,17.52,5.51,3.61,3.51,7.22,7.03,10.78,10.59,6.89,6.9,13.73,13.86,20.64,20.74,2.06,2.05,3.82,4.29,5.18,6.85.41.77.91,1.49,1.47,2.4.55-.45,1.05-.79,1.47-1.21,12.22-12.31,24.42-24.64,36.66-36.93,1.69-1.69,3.43-3.38,5.36-4.78,7.38-5.37,16.23-4.08,22.28-.08,4.33,2.86,6.46,7.18,7.46,12.13,1.33,6.63-.47,12.41-5.14,17.17-8.95,9.13-18.04,18.14-27.06,27.21-4.17,4.19-8.31,8.42-13.65,11.66.62.69,1.06,1.22,1.54,1.69,12.85,12.7,25.71,25.39,38.57,38.08,3.1,3.06,5.22,6.62,5.9,10.99,1.68,10.82-4.8,19.92-15.55,21.95-6.9,1.3-12.61-.92-17.48-5.65-3.96-3.84-7.79-7.81-11.68-11.72-8.74-8.79-17.48-17.57-26.22-26.36-.28-.28-.58-.54-1.06-.98-.65.61-1.27,1.18-1.87,1.78-9.15,9.17-18.29,18.34-27.45,27.5-2.82,2.83-5.65,5.66-8.52,8.44-3.55,3.44-7.47,6.23-12.51,7.11-10.44,1.82-19.8-4.65-21.81-15.04-1.34-6.93.56-12.74,5.53-17.7,10.35-10.34,20.66-20.72,30.96-31.11,2.7-2.72,5.32-5.51,8.37-8.69Z"/>
  <path class="cls-1" d="m672.79,702.37c-4.04,3.97-7.88,7.69-11.67,11.46-8.74,8.68-17.43,17.39-26.19,26.05-3.09,3.05-6.59,5.54-10.57,7.36-12.26,5.59-25.15-3.78-25.49-16.2-.16-5.8,1.65-10.89,5.74-15.01,10.98-11.07,22.01-22.09,33.07-33.07,1.23-1.23,2.77-2.16,4.19-3.19.96-.7,1.97-1.33,3.13-2.11-2-2-3.86-3.86-5.72-5.72-10.55-10.59-21.11-21.17-31.66-31.77-2.61-2.62-4.9-5.49-6.57-8.81-5.64-11.24.18-23.9,12.37-26.61,7.09-1.58,13.34.39,18.49,5.46,7.18,7.07,14.24,14.25,21.33,21.41,5.74,5.8,11.44,11.63,17.16,17.44.33.34.71.62,1.18,1.03.65-.7,1.25-1.32,1.82-1.97,11.76-13.32,24.42-25.76,37.26-38.02,6.15-5.87,13.46-7.65,21.45-4.29,12.36,5.2,15.52,20.92,6.15,30.75-6.56,6.89-13.4,13.51-20.17,20.2-5.86,5.79-11.79,11.5-17.69,17.24-.69.67-1.44,1.26-2.3,2.02.79.84,1.35,1.48,1.95,2.08,10.45,10.47,20.9,20.93,31.34,31.41,1.47,1.47,2.86,3.02,4.25,4.57,4.36,4.85,6.82,10.6,7.6,17.02.52,4.27-.73,8.18-3.79,11.21-5.46,5.42-12.05,7.68-19.71,6.16-3.65-.72-6.57-2.81-9.17-5.38-3.98-3.94-8-7.83-11.95-11.79-6.95-6.96-13.89-13.93-20.76-20.97-1.21-1.24-2.1-2.8-3.05-4.27-.72-1.13-1.3-2.37-2-3.68Z"/>
  <path class="cls-1" d="m333.17,556.82c-.16,10.88-8.62,19.49-19.08,19.25-11.58-.27-19.33-9.9-19-19.63.35-10.39,8.72-18.69,19.01-18.5,10.97.19,19.22,8.37,19.07,18.89Z"/>
  <path class="cls-1" d="m407.08,545.86c.03,10.13-8.76,19.04-18.86,19.13-10.16.1-19.13-9.04-19.1-19.46.03-10.03,8.99-19.09,18.97-19.16,10.23-.07,18.97,8.9,19,19.49Z"/>
  <path class="cls-1" d="m482.75,545.76c-.01,9.61-8.1,19.16-19.1,19.19-10.27.03-18.88-8.92-18.9-19.34-.02-10.24,8.95-19.3,19.06-19.24,10.1.06,18.97,9.14,18.94,19.4Z"/>
  <path class="cls-1" d="m276.01,605.28c.1,10.52-8.3,19.17-18.63,19.19-10.36.02-19.26-8.86-19.33-19.3-.07-10.64,8.19-18.53,19.55-18.68,10.6-.14,18.31,7.72,18.41,18.8Z"/>
  <path class="cls-1" d="m236.06,657.73c10.43.03,18.95,8.52,18.96,18.88,0,10.3-8.84,19.05-19.2,19.02-10.18-.03-19.12-8.86-19.13-18.9-.01-10.52,8.67-19.04,19.37-19.01Z"/>
  <path d="m235.8,773.18c17.72.22,32.54,13.28,34.93,30.93,2.38,17.62-8.35,34.41-25.11,39.29-18.97,5.52-38.94-6.02-43.9-25.36-5.01-19.57,7.26-39.59,26.98-43.9,2.33-.51,4.73-.65,7.1-.96Z"/>
  <path d="m635.69,182.66c-.02-19.22,15.89-35.16,35.42-35.17,19.98,0,35.5,16.14,35.52,35.6.02,19.58-16.26,35.77-35.78,35.74-19.02-.03-35.14-16.61-35.16-36.17Z"/>
</svg>